<?xml version="1.0" encoding="UTF-8"?>
<svg id="a" xmlns="http://www.w3.org/2000/svg" viewBox="0 0 832.2 569.3">
	<defs>
		<style>.b{fill:#E01211;stroke-width:0px;}</style>
	</defs>
	<path class="b" d="m219.3,61.5c10,.4,19.2.6,28.4,1.1,11.3.6,22.7,1.4,34,2.2,16.9,1.3,33.5,3.9,49.9,8.2,14.4,3.8,28.7,7.4,43,11.5,7.1,2.1,13.9,5.1,20.8,7.7,6.3,2.4,12.5,4.9,18.9,7.1,1.3.5,3.1.5,4.4,0,12.8-4.7,25.4-9.9,38.2-14.2,10.7-3.6,21.7-6.3,32.6-9.1,10.5-2.7,21-5.2,31.6-7.3,7.4-1.5,15-2.2,22.5-3,8.6-.9,17.1-1.5,25.7-2.2,2.7-.2,5.3-.4,8-.5,12.5-.5,25.1-1.3,37.6-1.3,8.5,0,17,1,25.5,1.6,6.2.5,12.4,1.1,18.6,1.8,6.9.8,13.8,1.6,20.7,2.8,9.8,1.6,19.6,3.2,29.3,5.4,11.7,2.6,23.3,5.6,34.1,11.1,2.2,1.1,4.2,2.6,6,4.1,2.2,1.9,2.3,5.1,0,6.7-4.1,2.9-8.4,5.6-12.9,7.7-13,6.1-26.6,10.7-40.4,14.9-12.6,3.8-25.2,7.6-37.9,11.1-8.6,2.4-17.2,4.3-25.9,6.4-4.2,1-8.4.8-12.7-.2-18.3-4.5-36.7-8.9-55-13.2-11.8-2.8-23.6-5.7-35.5-8.1-8.5-1.7-17.2-3-25.9-4-10.6-1.1-21.3-1.8-31.9-2.4-8.8-.5-17.7-1-26.5-.7-7.6.2-15.2,1.4-22.7,2.4-3.5.5-7,.7-10.5,0-11.9-2.3-23.8-3-35.9-2.2-5,.3-10.1.3-15.1.6-6.6.4-13.2.8-19.8,1.4-6.9.6-13.7,1.2-20.6,2.2-8.1,1.3-16.2,2.8-24.2,4.6-17.6,4-35.2,8.2-52.9,12.4-9,2.1-18.1,3.9-26.9,6.6-7.2,2.2-14,1.4-20.9-.5-15-4.1-30.1-8-45.1-12.3-17.9-5.1-35.6-10.9-52.7-18.5-3.8-1.7-7.3-3.8-11-5.9-1-.6-1.9-1.4-2.7-2.3-2.1-2.3-2.2-4.8.2-6.8,2.1-1.8,4.4-3.4,6.8-4.5,9.4-4.6,19.5-7.4,29.6-9.7,9.1-2.1,18.2-3.9,27.4-5.5,7.3-1.3,14.7-2.1,22-3,6.1-.8,12.2-1.5,18.3-2.1,6-.6,12-1,18-1.4,4.7-.3,9.5-.5,13.4-.7Zm430.5,36.3c-8.1.3-14.4.5-20.7.8-12.3.7-21.6,7.1-29.5,15.8-1.1,1.2-1.1,2.4-.3,3.8,2,3.4,5.1,5.2,8.7,6.2,7.9,2.2,16,2.1,24,.9,12.3-1.8,24.4-4.7,36.1-9.1,4.3-1.6,8.4-3.9,12.6-6.1.7-.4,1.6-1.9,1.3-2.3-2.8-4.2-6-8.4-11.5-8.9-7.5-.7-14.9-1-20.7-1.3Zm-439.2,28.4c3.4-.2,6.8-.3,10.2-.8,3.9-.5,7.8-1.6,10.6-4.5,4.1-4.2,3.4-4.8.4-8-.5-.5-.9-1.2-1.5-1.6-8.5-7.6-18-12.9-29.9-12.8-12,.2-24,.4-36.1.5-6.2,0-9.7,4.1-13.1,8.4-.8,1-.8,1.9.4,2.5,1.8,1,3.5,2.2,5.4,3.1,9,4.5,18.6,7.2,28.3,9.4,8.3,1.9,16.5,4.1,25.2,3.8Zm424.9-55.2c-2.5,0-4.9-.1-7.4,0-5.3.4-10.6.6-15.9,1.4-3.3.5-4.1,2.5-3.1,5.7.1.5.3,1,.6,1.4,2.9,4.4,7.1,7.4,11.9,8.2,6.2,1,12.7.9,19.1.9,8.6,0,17.2-.5,25.8-.4,6.5,0,12.6-1.3,18.5-4,1.6-.8,3.2-1.9,4.5-3.2,1-1,1.2-2.2-.8-2.7-6.3-1.5-12.5-3.4-18.9-4.7-11.3-2.2-22.7-3.4-34.3-2.8Zm-446.8,17.1v.4c5.5,0,11,0,16.5,0,4.9,0,9.4-1.3,13.3-4.2,2.3-1.7,4.6-3.6,5.3-6.6.6-2.6-.3-4.7-2.9-5.2-3.9-.7-7.8-1.4-11.7-1.4-13.3,0-26.6-.9-39.7,1.7-8.3,1.7-16.6,3.6-24.9,5.5-2.3.5-2.5,2-.6,3.5,4.6,3.4,9.9,5.7,15.5,6,9.7.5,19.4.1,29.2.1Zm379.7,1.5c6.2-.3,10.5-.4,14.7-.7,5.8-.5,11.5-1.4,16.7-4.2,2.3-1.3,2.8-2.2,1.2-4.4-3.9-5.5-9-9.1-16.1-9.2-6.7,0-13.3-.2-20,0-9,.2-18.1.9-26.8,3.6-4.5,1.4-9,3.3-13.3,5.5-2.8,1.4-2.5,2.7,0,4.6,2.7,2,5.7,2.5,9,2.7,12.1.7,24.3,1.5,34.6,2.2Zm5.8,24.8c9.8,0,17.8-3.7,24.4-10.8,3-3.3,2.7-4.6-1.6-5.3-7.1-1.1-14.2-1.8-21.4-2.2-6.5-.4-13.1-.5-19.6-.5-9.5,0-19,0-28.5.4-3.8.1-7,2.2-9.6,5-1.2,1.3-.8,2.3.7,3,.6.3,1.3.4,1.9.6,10.2,3.5,20.6,5.8,31.3,7.2,7.5,1,15,1.7,22.5,2.6Zm-309.7-25c9.6-.5,21-1.1,32.3-1.9,3.5-.3,7.2,0,10.4-2.3,3.4-2.5,3.7-3.8,0-5.5-5.2-2.3-10.6-4.5-16.2-5.8-6.2-1.4-12.7-1.8-19.1-2.5-8.9-.9-17.9-1.2-26.9,0-5.7.8-9.6,4.3-12.9,8.6-1.7,2.2-1.3,3.3,1.2,4.5,1.7.8,3.4,1.6,5.1,2.1,8,2.4,16.2,2.4,26.2,2.7Zm21.9,6.6c0-.2,0-.5,0-.7-13.8.6-27.6,1-41.4,1.7-3.6.2-7.3,1.2-10.9,2-1.8.4-2.2,1.5-.9,3.1,5.8,7.3,13.3,11.4,22.7,11.8,3.6.2,7.3,0,10.9-.5,6-.6,11.9-1.3,17.9-2.2,4-.6,8-1.3,12-2.3,5.9-1.5,11.8-3.2,17.7-4.9,1.2-.4,2.1-1.3.9-2.7-2.7-3-6.1-5.1-10.2-5.3-6.2-.2-12.5,0-18.7,0Zm148.8,4.8c0,.2,0,.4.1.5.5,0,1.1.1,1.6,0,14.6-.1,29.1-.3,43.7-.3,7.7,0,15-1.4,22.1-4.3,2.3-.9,4.5-2.3,6.5-3.7,2.4-1.7,2.4-3.4.3-5.3-1.1-.9-2.5-1.6-3.9-2-7.1-2.2-14.4-1.7-21.6-.7-13.3,1.9-26,5.9-38.4,11-3.5,1.4-6.9,3.1-10.4,4.7Zm-37.6.7c0-.2.1-.5.2-.7-3.5-1.6-7-3.3-10.6-4.7-14-5.6-28.3-10.2-43.5-11.4-5.8-.5-11.7-.4-17.4,1.6-2,.7-4.1,1.9-4,3.9,0,1.4,1.7,3.2,3.1,4.2,5.7,3.7,12.1,5.6,18.8,6.2,7.4.7,15,.8,22.5.9,10.3.1,20.6,0,31,0Zm304.2,4.4c1.3-.1,2.6-.1,3.8-.4,7.9-1.6,15.4-4.1,22.5-8,1.8-1,4.2-1.9,4.1-4.2-.2-2.5-2.8-3.3-4.9-3.9-4.5-1.2-9-2.2-13.6-3.1-2.7-.5-5.9-1.3-8.3-.5-4.9,1.7-9.5,4.3-14.2,6.7-.6.3-1.2,1.3-1.3,2.1-.5,6.3,2.4,10,8.7,10.9,1.1.2,2.2.2,3.3.3Zm-572.3-.2c11.4-.2,12.6-3,13.6-9.2.3-2,0-3.5-1.9-4.5-3.4-1.7-7-3.2-10.3-5.1-2.4-1.3-5-1.4-7.5-1.1-2,.2-4,.4-5.9.9-4.7,1.2-9.5,2.2-14,3.9-3.4,1.3-3.5,3.6-.4,5.5,8.6,5.3,18,8.5,26.5,9.5Z"/>
	<path class="b" d="m398.7,254c-2.2,0-3.9,0-5.6,0-6.3-.2-12.6-.3-18.9-.5-8.3-.3-16.6-.5-24.9-.8-7.9-.3-15.8-.7-23.7-1.4-9.8-.8-19.5-1.7-29.3-2.7-7.7-.7-15.4-1.4-23.1-2.3-10.9-1.3-21.8-2.8-32.6-4.4-11.3-1.7-22.6-3.4-33.9-5.4-7.6-1.3-15.1-2.9-22.6-4.4-8.2-1.7-16.5-3.1-24.7-5.1-11.1-2.7-22.1-5.7-33.1-8.8-8.5-2.4-17-5-25.3-8-9.6-3.4-19-7.3-28.4-11.2-6.1-2.5-12-5.3-17.8-8.3-11.5-6-22.5-12.7-32.5-21-8.8-7.3-15.8-16-19.8-26.8-1.5-4-2.5-8-2.4-12.3.2-5.8-.2-11.6,1.6-17.2,2.4-7.8,6.6-14.5,11.8-20.7,7.5-8.8,16.9-15.4,26.7-21.2,8.6-5.1,17.3-10.2,26.4-14.2,13.1-5.7,26.4-10.9,39.9-15.5,13.1-4.5,26.5-8.4,39.9-11.9,13.4-3.5,27-6.3,40.7-9.1,10.8-2.2,21.7-4,32.5-5.8,9.9-1.6,19.8-3.1,29.8-4.4,10.1-1.3,20.2-2.5,30.3-3.5,9.2-1,18.4-1.9,27.6-2.7,6.7-.6,13.4-1,20.1-1.4,6.1-.4,12.3-.7,18.4-1,5.8-.3,11.7-.5,17.5-.9,30.5-1.8,61-.8,91.5-.8,6.9,0,13.8.5,20.6.8,8.7.4,17.5.8,26.2,1.4,8.9.6,17.8,1.4,26.7,2.1,7.1.6,14.3,1.1,21.4,1.9,7.4.8,14.7,1.8,22.1,2.7,6.8.8,13.7,1.6,20.5,2.6,7.1,1,14.1,2.3,21.2,3.4,4.7.7,9.4,1.3,14,2.2,7.6,1.4,15.2,2.9,22.8,4.5,9,1.9,18,3.7,26.9,5.8,9.8,2.4,19.5,4.9,29.1,7.8,16.3,4.8,32.5,10.1,48.1,16.9,7.6,3.3,15.2,6.6,22.6,10.4,12,6.1,23.4,13.2,33.7,21.9,8.6,7.3,15.4,16.1,19.2,26.8,1.1,3,1.6,6.2,1.8,9.3,1.1,11.6-.7,22.5-7.3,32.5-4.6,6.9-10,13.1-16.7,17.9-7.3,5.2-14.5,10.6-22.2,15-8.3,4.8-17,8.9-25.8,12.7-9.7,4.2-19.7,8.2-29.7,11.6-11.3,3.9-22.8,7.4-34.3,10.5-13.6,3.7-27.2,7-40.9,10.1-13.1,2.9-26.4,5.2-39.6,7.6-7.7,1.4-15.4,2.6-23.1,3.6-8.4,1.2-16.8,2.1-25.2,3.1-7.7.9-15.4,1.6-23.1,2.3-8.3.8-16.6,1.6-24.9,2.2-8.8.7-17.5,1.3-26.3,1.8-8.2.5-16.4.9-24.6,1.3-5.8.3-11.6.4-17.3.5-5,.1-10.1.3-15.1.4-1.8,0-2.1-.4-1.6-2.2.9-3.3,3.2-4,6.2-4,7.7,0,15.3,0,23-.2,8.1-.2,16.3-.7,24.4-1.1,5.8-.3,11.5-.6,17.3-1,6.5-.4,13-.9,19.4-1.5,9.4-.9,18.8-1.9,28.2-2.9,8.6-.9,17.2-1.7,25.7-2.8,10.1-1.3,20.1-2.9,30.2-4.6,9-1.5,18-3,27-4.7,6.7-1.3,13.5-2.7,20.1-4.2,9.4-2.1,18.8-4.2,28.2-6.7,8-2.1,16-4.4,23.8-7,10.9-3.6,21.7-7.3,32.4-11.4,14.4-5.5,28.3-12.2,41.3-20.3,6.9-4.3,13.6-9,19.8-14.3,10.7-9.2,17.8-20.8,19.3-35.1.6-5.9-.8-11.6-2.8-17.2-2.7-7.4-7-13.7-12.4-19.4-3.5-3.7-7.7-6.8-11.7-9.8-9.2-6.9-19-12.9-29.5-17.7-9.8-4.6-19.7-9-29.6-13-7.3-3-14.8-5.6-22.4-7.9-11.2-3.4-22.4-6.7-33.7-9.7-9.6-2.6-19.3-4.8-29-6.9-11.4-2.5-22.8-4.8-34.3-6.9-11.5-2.1-23.1-3.8-34.8-5.4-10.9-1.5-21.8-2.8-32.7-4-8.7-.9-17.5-1.6-26.3-2.3-8.5-.7-17.1-1.3-25.7-1.8-9.8-.6-19.5-1-29.3-1.4-9-.4-18-.8-27.1-.9-14.6-.2-29.1-.3-43.7-.3-5.3,0-10.7.1-16,.3-9.2.3-18.5.6-27.7,1.1-9.9.5-19.8,1.1-29.7,1.7-7.3.5-14.6,1.1-21.9,1.8-11.3,1.1-22.6,2.3-33.9,3.6-9.7,1.2-19.4,2.6-29.1,4-8.7,1.3-17.4,2.8-26,4.4-13.2,2.5-26.4,5-39.5,8-13.7,3.2-27.4,6.9-41,10.7-7.5,2.1-15,4.7-22.4,7.2-18,6.2-35.5,13.7-52.1,23.1-9.1,5.2-17.8,10.9-25.7,17.8-8.9,7.7-15.4,17.2-18.1,28.9-2.2,9.3-.7,18.2,3.3,26.7,4.2,9.1,10.6,16.5,18.5,22.7,8.8,6.9,18.2,12.9,28.1,18.1,7.2,3.8,14.7,7.2,22.2,10.4,7.9,3.4,15.9,6.7,24.1,9.4,13.5,4.5,27.1,8.8,40.8,12.5,11.9,3.3,24,5.9,36,8.4,10.7,2.3,21.4,4.1,32.2,6,9.3,1.6,18.6,3.2,27.9,4.5,8.8,1.2,17.7,2.2,26.5,3.2,9.5,1,19.1,1.9,28.6,2.8,7.9.7,15.9,1.4,23.8,2.1,5.6.4,11.2.7,16.8,1,8,.4,16,.8,23.9,1.1,8.8.3,17.6.5,26.4.8,1.3,0,2.6.2,4,.4.3,0,.8.3.9.6.7,1.6,1.3,3.2,2.1,5.2Z"/>
	<path class="b" d="m398.5,123.4c-3.3-1.3-6.5-2.6-9.8-3.7-1.9-.7-3.8-1.2-5.7-1.7-1.5-.3-1.9-1.4-1.4-2.4.3-.7,1.5-1.6,2.2-1.5,3.9.3,7.9.6,11.7,1.5,6.7,1.6,13.4,3.7,20,5.5.7.2,1.5.2,2.1,0,10-4.2,20.6-5.9,31.3-6.9.8,0,2.2.7,2.6,1.4.7,1.4-.4,2.2-1.8,2.6-4.2,1.3-8.3,2.7-12.4,4.1-.9.3-1.8,1-2.7,1.4v.7c3.8,1.1,7.6,2.4,11.5,3.3,8.7,1.8,17.7,2,26.4.7,6.2-.9,12.1-3.6,18.1-5.7,1-.3,1.7-1.6,2.4-2.5.8-.9,1.6-1.9,3-1,1.2.8,1.5,2,.7,3.3-1.4,2.2-1.9,4.6-1.9,7.2,0,1.8.7,2.8,2.3,3.6,10.5,5,21.6,8.3,32.9,11,10.7,2.6,21.5,4.1,32.5,4.9,6.5.5,11.8-2.2,16.7-6,1.5-1.1,2.8-2.5,4.3-3.5.8-.5,2.3-.7,2.9-.2.6.5.9,1.9.8,2.8-.6,3.3-1.5,6.5-2,9.7-.3,2.2.7,4.1,2.6,5.5,5.7,3.9,11.9,6.7,18.5,8.5,8.8,2.4,17.7,4.4,26.6,6.1,12.7,2.4,25.1,1.6,37-3.9,3.9-1.8,3.9-3.3.8-6.3-5.3-5.1-12.2-6.2-18.8-7.7-3.6-.9-7.3-1.2-10.9-1.9-.8-.2-1.5-1.1-2.2-1.6.8-.6,1.6-1.6,2.5-1.7,1.9-.2,3.8.2,5.8.3,11.3.5,22.2-1.3,32.7-5.4,2.9-1.2,5.7-2.8,8.3-4.5,2.5-1.7,2.7-3.4,1-5.9-.8-1.2-2.4-2.4-1-3.8,1.3-1.4,3.1-.9,4.8-.2,6.2,2.7,12.4,5.4,18.6,8,11.6,4.9,22.8,10.8,33.3,17.7.3.2.6.4.9.6,3.3,2.5,3,6.3-.8,7.8-4.5,1.7-9.2,3.2-14,4.3-9.6,2.2-19.2,4.3-28.9,6.1-11.5,2.2-23.1,4-34.6,6-7.1,1.2-14.1,3-21.2,3.8-5.9.6-11.9.6-17.7,0-3.2-.3-6.2-2.4-9.3-3.6-11.6-4.3-23-9-34.8-12.8-16.6-5.4-33.4-10.4-50.2-15.4-8.9-2.6-17.7-5.2-26.7-7.2-11.8-2.7-23.7-5-35.6-7.2-6.8-1.3-13.7-2.3-20.6-3.2-6.8-.9-13.7-1.7-20.5-2.1-7.5-.4-15-.7-22.4-.4-6.9.2-13.7,1-20.6,1.8-7,.8-13.9,1.9-20.9,3-7,1.1-14.1,2.2-21,3.7-11.2,2.5-22.4,4.9-33.4,8-20.1,5.7-40.2,11.6-60,18.1-15.6,5.1-30.9,11.4-46.4,17.1-.8.3-1.6.5-2.4.6-7.2.7-14.4.3-21.5-1.1-9.2-1.8-18.5-3.2-27.7-4.9-7-1.2-14-2.5-20.9-3.9-10.4-2.1-20.9-4.1-31.3-6.4-4.5-1-8.8-2.5-13.1-4-1.8-.6-3.4-1.4-3.7-3.7-.3-2.4.9-3.9,2.8-5.1,12.3-8.1,25.5-14.6,39.2-20.2,4.2-1.7,8.3-3.6,12.5-5.3,1.4-.5,3.1-.8,4.6-.6,1.6.2,1.8,1.5,1,2.9-3,5.2-2.8,6.7,2.7,9.2,5.6,2.5,11.4,4.5,17.3,6.1,7.4,2,15.1,2.2,22.8,1.8,1.3,0,2.7-.5,4-.2.9.2,1.6,1.2,2.4,1.8-.7.6-1.4,1.5-2.2,1.6-6.9,1.6-13.9,2.9-20.8,4.5-3.9.9-7.1,3.2-10,6-2,2-1.8,3.5.7,4.9,5.8,3.1,12,4.5,18.4,5.2,9.4,1.1,18.6-.5,27.8-2.3,9.7-1.9,19.3-4.3,28.4-8.5,3-1.4,5.8-3.2,8.7-4.9,3-1.8,2.2-4.8,2-7.4-.2-2.2-.8-4.4-1.5-6.5-.5-1.5-1.1-2.8.6-3.9,1.7-1.1,2.7,0,3.9,1,2.6,2,5.3,4.1,8,5.9,4.2,2.8,8.9,3.3,13.9,2.9,11.8-1,23.5-2.8,35-5.9,9.4-2.5,18.6-5.3,27.4-9.5,3.5-1.7,4.4-3.6,3.2-7.5-.4-1.4-1-2.8-1.7-4.1-.6-1.4-.2-2.5.9-3,.7-.3,2.2.2,2.6.8,2.1,3.4,5.6,4.2,8.9,5.5,10.7,4.3,21.9,4,33.1,3,5.7-.5,11.3-1.9,16.8-5.1Zm299.5,40.9c3-.2,6.1-.3,9.1-.6,6.9-.7,13.6-1.7,19.5-6,1.7-1.3,1.7-2.3.3-3.5-2.4-2-4.9-4.1-7.6-5.8-12.3-7.6-26.2-7.2-36.8,1-2.2,1.7-4.7,3.7-4.3,6.8.4,3.2,3.2,4.5,5.9,5.8,4.5,2.1,9.2,2,13.9,2.2Zm-563.6.3c0-.2,0-.4,0-.6,1.5,0,3,0,4.5,0,4.8,0,9.5-.9,13.3-4.1,2.8-2.4,3.1-4.7.8-7.5-4.8-5.7-11.3-8.2-18.5-9-7-.8-13.7,1-19.8,4.5-3,1.7-5.8,3.9-8.4,6.1-2.1,1.8-2,2.7.4,4,2.8,1.5,5.6,3.3,8.6,3.9,6.3,1.3,12.7,1.9,19.1,2.7Z"/>
	<path class="b" d="m449.6,505.4c.3-.6.6-1.1.8-1.7.7-2.5,2-5.1,2-7.6.1-30.4,0-60.8.1-91.2,0-3-.7-5.8-2.2-8.4-.3-.5-.4-1-.7-1.8,1,0,1.7-.1,2.4-.1,16.1,0,32.3-.1,48.4,0,3.7,0,7.5.9,11,2,4.9,1.6,7.8,5.2,8.3,10.5.5,5.4-1.7,9.5-6,12.6-1.2.8-2.4,1.6-3.9,2.5,4.8,1.8,8.8,4.3,11.9,8.2,5.9,7.3,6.8,15.4,4.2,24.3-2.8,9.3-8.3,16.8-15.1,23.5-13.1,13.1-28.7,21.9-46.8,26.2-4.6,1.1-9.3,1.4-13.9,2.1-.1-.3-.3-.6-.4-.9Zm20.2-20.4c1.2-.3,2.3-.6,3.3-1,10.6-3.9,19.6-10,27-18.5,4.3-4.9,7.6-10.5,8-17.2.7-10-7.4-18.6-17.5-18.7-4.8,0-9.7,0-14.5,0-2.1,0-4.2,0-6.4,0v55.4Zm0-70.1c9.2,0,18.2,0,27.2,0,.9,0,2-.7,2.7-1.3,1.6-1.3,1.3-3.7-.6-4.5-1.2-.5-2.6-.8-3.9-.8-4.4,0-8.9,0-13.3,0-4,0-8,0-12.1,0v6.7Z"/>
	<path class="b" d="m561.7,409.7v5.2h2.5c12.1,0,24.2,0,36.4,0,2.2,0,2.8.6,2.7,2.8-.2,3.3-.2,6.5,0,9.8.1,2.1-.7,2.5-2.5,2.5-12.1,0-24.2,0-36.4,0-.8,0-1.6,0-2.6,0v61.1c.7,0,1.5,0,2.3,0,11.7,0,23.5,0,35.2,0,4.8,0,9.4-.7,13.7-3.1.5-.3,1.2-.4,2.2-.7v3.6c0,4.3,0,8.6,0,12.9,0,1.8-.6,2.4-2.3,2.3-1.2,0-2.4,0-3.6,0-21.7,0-43.4,0-65.1,0-.8,0-1.5-.1-2.7-.2.6-1.2,1.2-2,1.4-2.8.7-3.1,1.7-6.2,1.7-9.3.1-28.8,0-57.5,0-86.3,0-4.3-.8-8.4-3.3-12.4.9-.2,1.5-.4,2.2-.4,20.7,0,41.5,0,62.2,0,1.2,0,2.2,0,2.2,1.7,0,5.4,0,10.9,0,16.3,0,.2-.1.4-.3.9-.6-.2-1.2-.4-1.8-.7-3.8-2.2-8-3.1-12.4-3-9.7,0-19.5,0-29.2,0s-1.6,0-2.6,0Z"/>
	<path class="b" d="m416.6,187c1.3-8.7-.1-16.9-3.4-24.7-.6-1.4-1.6-2.7-2.8-3.7-2.1-2-3.5-1.7-5.2.7-2.5,3.7-3,8-3.4,12.3-.7,8.2,1.1,16.1,3.2,23.9,2.3,8.5,4.6,17,7,25.4,1,3.4,2.4,6.7,3.8,9.9,1,2.2,2.3,2.5,3.6.5,2-3.1,4-6.5,4.9-10.1,2.1-8.4,3.7-17,5.1-25.6.9-5.3,1.4-10.7,1.8-16.1.7-9.3-1.4-18.3-2.9-27.3-.3-1.5-.8-3-.9-4.6,0-.9.7-1.9,1.1-2.9.7.6,1.9,1,2.1,1.8,1.9,6.5,3.7,13.1,5.5,19.6,2.5,8.9,2.1,17.9.6,26.9-2.3,13.4-4.4,26.9-6.7,40.3-1.9,11.3-4.2,22.6-5.8,33.9-1.2,8.7-1.9,17.6-2.3,26.4-.7,13-1.1,26.1-1.5,39.1-.3,9.1-.5,18.3-.8,27.4-.3,9.9-.6,19.7-.8,29.6,0,1.8-.9,2.9-2.6,2.9-1.7,0-2.4-1.2-2.7-2.8,0-.6,0-1.2,0-1.8,0-19.6,0-39.2-.2-58.9,0-9.4-.4-18.9-.8-28.3-.4-8.7-.7-17.4-1.8-25.9-1.2-9.6-3-19.1-5.1-28.6-3.8-16.8-8.2-33.4-12-50.2-1-4.5-1.8-9.3-1.7-13.9.2-5.1,1.4-10.2,2.5-15.3,2-9.2,4.3-18.4,6.6-27.6.2-1,1.2-2.6,1.7-2.6,1.4.1,3.3.6,4,1.7,2.6,3.8,4.8,7.8,7.1,11.8,3.6,6.3,7.2,12.6,10.6,19,.6,1.2,1.1,2.7.9,4-.9,8.6-1.9,17.1-3,25.6-.4,3.3-1.2,6.5-1.9,9.8-.2.8-.4,1.6-.9,2.2-.5.7-1.3,1.6-2.1,1.7-.5,0-1.5-.9-1.8-1.6-1.3-3.8-2.6-7.5-3.5-11.4-1.6-7.4-3-14.8-4.4-22.2-.3-1.3-.4-2.7,1.2-3.2,1.6-.5,2,.9,2.4,2,1.1,2.8,2.2,5.6,3.4,8.4.4.9,1.1,1.6,1.7,2.5Z"/>
	<path class="b" d="m153.4,413.5c-1-.4-1.6-.7-2.2-.9-3.8-2-7.8-3-12.2-3-9.8,0-19.6,0-29.4,0h-2.5v5.2h39.5v14.9h-39.6c0,1.1,0,1.9,0,2.8,0,19.3,0,38.7,0,58,0,4.9.8,9.4,3.6,13.5.2.3.4.6.5,1,0,.1,0,.3,0,.7h-23.6c.1-.5.1-1,.4-1.4,1.8-2.9,2.4-6.1,2.4-9.4,0-29.8,0-59.6-.1-89.4,0-3.5-1.4-7-2.2-10.8.2,0,.9-.2,1.5-.2,20.6,0,41.2,0,61.8,0,1.7,0,2.4.4,2.4,2.2-.1,5.4,0,10.8,0,16.8Z"/>
	<path class="b" d="m346.4,490.9c.9,0,1.6,0,2.3,0,9.1,0,18.1,0,27.2,0,4.8,0,9.2-1.1,13.5-3,2.2-1,2.5-.8,2.5,1.7,0,4.8,0,9.5,0,14.3,0,1.4-.3,2.2-2,2.2-20.7,0-41.5,0-62.2,0-.4,0-.7-.1-1.4-.2.7-1.5,1.6-2.8,1.8-4.2.6-3.2,1.1-6.4,1.1-9.7,0-27.7,0-55.4,0-83.2,0-4.7-.2-9.5-3.3-13.9h24.6c-.8,1.7-1.5,3.1-2.2,4.5-1.6,3.2-2.2,6.5-2.2,10.1,0,25.8,0,51.6,0,77.4s0,2.5,0,4.1Z"/>
	<path class="b" d="m168.5,505.7c3.9-5.3,3.3-11,3.3-16.6,0-27.4,0-54.9,0-82.3,0-4.2-.8-8-3.1-12h24.1c-1.3,3.7-2.5,7.2-3.7,10.7-.3.8-.3,1.8-.3,2.6,0,27,0,54,0,80.9,0,.5,0,1,0,1.7.7,0,1.2.1,1.7.1,9.9,0,19.8.3,29.7-.1,4-.2,7.9-1.8,11.8-2.8.7-.2,1.3-.5,2.2-.8.1.7.3,1.1.3,1.5,0,5.1,0,10.3,0,15.4,0,1.6-.6,2.1-2.1,2.1-20.5,0-41,0-61.6,0-.5,0-1-.1-2.1-.3Z"/>
	<path class="b" d="m630.6,505.7c.6-1.3,1.4-2.3,1.6-3.4.6-3,1.3-6,1.4-8.9.1-28.5,0-57.1,0-85.6,0-4.2-.4-8.3-2.7-11.9-.1-.2,0-.6-.2-1.1h24.1c-.4.9-.6,1.5-1,2.1-2.3,4.1-3.5,8.4-3.5,13.1,0,26.1,0,52.2,0,78.3,0,.8,0,1.6,0,2.5.8,0,1.5.1,2.1.1,9.3,0,18.6,0,27.9,0,4.7,0,9.1-1.1,13.3-3,.5-.2.9-.4,1.4-.6.1,0,.3,0,.6.2v18.1h-65.2Z"/>
	<path class="b" d="m289,505.7h-23.2c.8-2.2,1.6-4.1,2.2-6.1.4-1.6.6-3.2.6-4.8,0-23.1,0-46.2,0-69.3,0-1.1-.5-2.4-1.2-3.1-6.3-6.2-12.6-12.4-19.1-18.4-3.1-2.8-6.6-5.2-10-7.8-.4-.3-.8-.7-1.8-1.4,1.4-.1,2.1-.2,2.8-.2,8.8,0,17.5,0,26.3,0,2,0,2.7.5,2.5,2.5-.2,2.3.5,4.3,2.2,5.8,2.2,2,4.5,3.9,7.1,6.2,2.4-3.2,5.3-6.9,8.2-10.6.1-.2.2-.4.3-.6q1-3.3,4.4-3.3c8.1,0,16.2,0,24.3,0,.8,0,1.6,0,2.3.1,0,.2.1.4.2.6-1,.6-2,1.3-3,1.9-8.1,5.2-15.2,11.6-21.7,18.6-1.9,2-3.9,3.9-5.7,5.9-.6.7-1.1,1.8-1.1,2.7,0,23,0,46.1,0,69.1,0,4.2.9,8.2,3.5,12.3Z"/>
	<path class="b" d="m734.2,394.9c-.4.8-.5,1.4-.8,1.9-2.6,4.1-3.4,8.6-3.4,13.4,0,26,0,52,0,78v2.6c.9,0,1.6.1,2.3.1,9.1,0,18.3,0,27.4,0,4.9,0,9.4-1.1,13.8-3.1.5-.2.9-.4,1.7-.7.1.8.2,1.4.2,2,0,4.8,0,9.7,0,14.5,0,1.5-.4,2.1-2,2.1-20.6,0-41.2,0-61.8,0-.4,0-.8-.1-1.6-.3,4.1-6,3.2-12.6,3.2-19.1,0-25.1,0-50.2,0-75.4,0-5.5.2-11-3.4-16.2h24.2Z"/>
	<path class="b" d="m406,394.6h22.7c0,.6,0,1-.2,1.4-2,3.1-2.4,6.7-2.5,10.2,0,29.6-.1,59.2,0,88.7,0,3.5,1.4,7,2.2,10.7h-22.2c0-.3-.2-.5,0-.7,2.7-4.1,3-8.7,3-13.5,0-27.7,0-55.4,0-83.2,0-4.5-.3-8.9-2.9-12.8-.1-.2,0-.4,0-.9Z"/>
	<path class="b" d="m410.9,52.8c3.1-2.5,6.5-3.6,10.3-1.2,4.7-6.9,11.9-9.1,19.4-10.4,1.7-.3,3.4-.4,5.1-.4,3.7,0,5.1,1.4,5.3,5.1.4,10.5-.7,20.7-6.1,30.1-1.8,3.1-3.4,6.4-5.3,9.5-.4.6-1.7,1.2-2.4,1-1.3-.4-1.6-1.4-1-2.9,2.1-4.9,4.4-9.7,6.1-14.7,1.7-5,1.8-10.2,1.1-15.4-.3-2.2-1.7-3.8-3.9-4.3-4.8-1.1-9.3-.3-13.1,2.9-.6.5-1.1.9-1.5,1.3,2.8,3.6,5.9,7,8.2,10.8,2.9,4.8,4,10.2,2.6,15.8-.9,3.6-3.1,6.2-6.1,8.2-4.5,3.2-9.2,5.8-15,5.1-4.9-.5-9-2.8-12.9-5.5-1.3-.9-2.6-2-3.7-3.2-1-1-2.2-2.2-1-3.8.7-.9,3.2-.2,4.5.7,2.6,1.8,5.1,3.8,8,5.1,7,3.3,13.7-.6,17.2-4.6,1.6-1.8,2-3.8,1.6-6-.8-4.1-2.6-7.7-5.5-10.7-3.2-3.2-5.7-3.5-9.4-.9-2.8,2-4.8,4.6-5.7,8-.9,3.3,1.5,6.8,4.9,7.1.7,0,2-.3,2.1-.7.3-1.1.4-2.5,0-3.6-.2-1-1.1-1.7-1.6-2.6-.6-1.1-.4-2.2,1-2.3,4.7-.5,12.6,3.9,10.3,10.8-.9,2.6-3.2,4.4-6.3,4.8-6.4.7-11.8-1.5-16.3-6-.2-.2-.3-.3-.4-.5-4.6-4.8-5-6.3-1.4-12,2.7-4.3,6-8.1,9-12.1.5-.7,1.1-1.3,1.7-2,.2-.1.3-.3.5-.4Z"/>
	<path class="b" d="m597.7,569.3c-3.4,0-6.1,0-8.8,0-.4,0-1.3-.9-1.2-1.1,1.2-3.7-.9-6.6-2-9.8-1.2-3.5-2.6-6.9-4.1-10.9-1.7,3.3-5.3,5.1-4.9,9.2.3,3.8.6,7.6.8,11.5,0,.4-.5,1.1-.8,1.2-2.2.1-4.5.1-6.7,0-.3,0-.8-.9-.8-1.3.1-1.5.6-3,.6-4.6,0-11.3,0-22.6,0-33.9,0-2.2-.3-4.4-.4-6.8.3,0,.8-.2,1.3-.2,6.3,0,12.6,0,18.9,0,4.6,0,6.8,3.3,4.6,7.3-1.9,3.5-4.5,6.6-6.7,9.9-.4.6-.7,1.6-.5,2.3,2.1,6.4,4.3,12.9,6.6,19.2.7,2.1,1.9,4,2.9,5.9.3.5.5,1.1,1,2.1Zm-21-40.4v14.2c3-4,5.6-7.5,8.1-11,.6-.8.8-1.9,1.2-3.2h-9.3Z"/>
	<path class="b" d="m701.1,522.6c2.4,0,5.2,0,8.1,0,.3,0,.6.8.8,1.2.4,1.3.5,2.8,1.2,3.9,2.6,4,5.4,7.8,8.2,11.7.3.5.8.8,1.6,1.7,0-3.5,0-6.5,0-9.5,0-2.9-.3-5.8-.5-8.9h7.6c-.2,2-.5,3.9-.5,5.9,0,11.6,0,23.2,0,34.8,0,1.5.4,2.9.5,4.4,0,.5-.4,1.4-.6,1.4-2.4.1-4.8,0-6.8,0,0-5.3.2-10.3.3-15.3,0-.7,0-1.6-.4-2.1-4-5.6-8-11.2-12.3-17.1-.1.9-.2,1.4-.2,1.9,0,9.1,0,18.3,0,27.4,0,.9,0,1.8.2,2.6.7,2.6.7,2.6-2,2.6-1.5,0-3,0-4.5,0-1.1,0-1.4-.4-1.1-1.6.4-1.5.7-3,.7-4.6,0-8.8,0-17.5,0-26.3,0-4.6-.1-9.3-.2-14.2Z"/>
	<path class="b" d="m805,522.5c10.1-.6,16.8,7,18.2,15.7,1.2,7.3,1.2,14.4-2.2,21.1-5.6,10.9-20.5,13.5-29.1,4.9-3-3-4.8-6.7-5.5-10.9-1.1-6.3-.9-12.4,1.1-18.5,2.5-7.5,8.7-12.7,17.5-12.3Zm-12.7,23.5c-.2,3.9.7,7.6,2.6,11,4.1,7.4,14.2,8.1,18.8,1,5-7.7,5.1-16,.9-24.1-2.1-4-5.9-5.8-10.4-5.7-4.4.2-7.5,2.3-9.5,6.3-1.8,3.6-2.6,7.4-2.4,11.4Z"/>
	<path class="b" d="m736.1,521.7c2.9.9,5.5,1.5,7.9,2.6,9.8,4.6,17,11.8,20.1,22.4,1.4,4.7,1.3,9.5-.5,14.2-2,5.1-5.8,8-11.3,8.2-4.9.2-9.8,0-14.7,0-1.5,0-1.8-.4-1.3-1.9.4-1.2.6-2.5.6-3.7,0-12,0-23.9,0-35.9,0-1.7-.5-3.5-.8-6Zm7.5,41c2.1,0,4,0,6,0,.7,0,1.5,0,2.2,0,3.4-.5,5.6-3,6.2-6.4,1.2-7.3-1.7-13.2-6.4-18.4-2.2-2.4-4.6-4.5-8-5.7v30.6Z"/>
	<path class="b" d="m561.2,522.5c-.2,3-.5,5.7-.5,8.4,0,10.4,0,20.8,0,31.2,0,1.9.5,3.8.6,5.7,0,.5-.6,1.3-1,1.4-2.1.1-4.2.1-6.2,0-.4,0-1-.9-1-1.3.2-3.8.6-7.6.8-11.5,0-.4-.8-1.2-1.3-1.2-3.3-.1-6.7-.1-10,0-.5,0-1.3.9-1.3,1.4.1,3.7.4,7.4.7,11,0,.4,0,.9,0,1.5h-8.3c.8-7.8,1.1-15.7,2.7-23.3,1.9-9,6.8-16.4,15-21.1,2.4-1.4,5.2-1.8,7.9-2.5.7-.2,1.5.2,1.9.3Zm-7.2,7.4c-6.6,5.1-9.8,11.4-11.8,18.9,3.7,0,7.1,0,10.5,0,.5,0,1.3-.8,1.3-1.2,0-5.6,0-11.2,0-17.6Z"/>
	<path class="b" d="m627.8,522.5c-.6,15.6-.8,30.9-.1,46.4h-7.4v-13.7c-3.6,0-7.3,0-11.1,0-.4,0-1,.9-1,1.3.1,3.7.3,7.4.7,11.1.1,1.2,0,1.7-1.2,1.7-2,0-4,0-6,0-1.5,0-1.4-.7-1.1-1.9.6-2,1.2-4.2,1.2-6.2,0-6.7.1-13.3,2.8-19.6,3.2-7.7,7.8-14.1,15.6-17.8,2-.9,4.2-1.1,6.4-1.5.6-.1,1.3.3,1.4.3Zm-7.3,7.7c-6.4,4.9-9.4,11.3-11.5,18.4h11.5v-18.4Z"/>
	<path class="b" d="m668.2,522.7c.2,0,.8-.1,1.4-.1,6.8,0,13.7,0,20.5,0,1.6,0,2.3.5,2.2,2.2-.1,1.9,0,3.8,0,5.9-5.5-2.6-10.8-1.1-16-1.5-.4,0-.8.6-1.2.9.5.3,1,.9,1.5.9,3.8,0,7.6.1,11.4,0,2,0,2.8.4,2.7,2.6-.2,4,.5,4-4,4-3.8,0-7.5,0-11.5,0,0,2.8,0,5.3,0,7.8,0,5.2,0,10.4,0,15.6,0,1.3.4,1.8,1.8,1.8,4.2,0,8.5,0,12.7-.1,1.6,0,3.2-.8,5.2-1.3,0,2.3,0,4.5,0,6.7,0,.4-.8,1.2-1.2,1.2-8.4,0-16.8,0-25.2,0-.2,0-.4-.2-.2-.1.2-3.1.4-6,.4-8.8,0-8.7,0-17.4,0-26.1,0-3.7-.2-7.5-.3-11.4Z"/>
	<path class="b" d="m511.8,528.7v40.4h-7.5c.9-14,.3-27.8.4-41.7,0-1.5-.5-3-.7-4.7.5,0,1-.2,1.6-.2,6.6,0,13.2,0,19.8,0,4.3,0,6.5,2.7,5,6.7-1.1,3.1-3.1,5.9-4.9,8.6-3.6,5.6-7.4,11.1-11.1,16.6-.4.6-.8,1.1-1.3,1.6-.3,0-.5-.1-.8-.2,0-1.2.1-2.4,0-3.5-.7-4.7,1-8.5,3.8-12.1,2.1-2.7,3.9-5.6,5.7-8.5.5-.8.6-1.7.8-2.6-.8-.2-1.7-.5-2.5-.5-2.8,0-5.6,0-8.4,0Z"/>
	<path class="b" d="m635.9,522.7c.7,0,1.3-.2,1.9-.2,6.4,0,12.8,0,19.2,0,4.7,0,6.9,2.8,5.1,7.3-1.3,3.2-3.4,6.1-5.3,9-3.6,5.5-7.2,10.8-10.9,16.3-.2.4-.4.8-.6,1.2-.2-.1-.5-.2-.7-.3-.1-.5-.3-1-.3-1.5-.6-5.3.3-10,4-14.2,2.2-2.5,3.9-5.6,5.7-8.4,1.6-2.5,1.2-3.1-1.7-3.1-2.5,0-4.9,0-7.4,0-1.2,0-1.7.3-1.7,1.6,0,11.3,0,22.6,0,33.9,0,1.5.5,3,.9,4.8h-8.2c1-5.2.9-41.4-.1-46.2Z"/>
	<path class="b" d="m410.9,52.8c-.2.1-.3.3-.5.4-1.4.7-2.5.5-3.8-.6-3.7-3.3-8.1-4.4-13-3.3-2.6.6-4,2-4.3,4.6-.8,6.8-.3,13.4,2.5,19.8,1.4,3.2,2.8,6.5,4.3,9.7.7,1.4.9,2.5-.7,3.3-1.6.8-2.1-.3-2.7-1.4-3.5-6.4-7.5-12.6-9.4-19.8-1.7-6.4-2.3-13-2-19.6.2-3.4,1.9-5.2,5.4-5.1,8.1.3,15.7,1.8,21.9,7.6,1.2,1.2,3,2.2,2.2,4.4Z"/>
	<path class="b" d="m771.7,569.2c.3-2.9.6-5.1.6-7.4,0-9.6,0-19.2,0-28.8,0-3.4-.3-6.7-.4-10.3h7.2c-.5,14-.1,27.9-.2,41.9,0,.8,0,1.7.4,2.4,1,2,0,2.3-1.7,2.2-2,0-4.1,0-5.9,0Z"/>
</svg>