<?xml version="1.0" encoding="UTF-8"?><svg id="a" xmlns="http://www.w3.org/2000/svg" viewBox="0 0 832.2 197.6"><defs><style>.b{fill:#e01110;stroke-width:0px;}</style></defs><path class="b" d="m409.2,125.3c.3-.6.7-1.3.9-1.9.8-2.9,2.2-5.7,2.2-8.6.2-34.3,0-68.7.1-103,0-3.4-.8-6.6-2.5-9.5-.3-.5-.5-1.2-.8-2.1,1.1,0,1.9-.2,2.7-.2,18.2,0,36.4-.1,54.7,0,4.2,0,8.5,1,12.5,2.3,5.5,1.8,8.9,5.9,9.4,11.8.6,6.1-1.9,10.7-6.8,14.2-1.3,1-2.8,1.8-4.4,2.8,5.4,2,9.9,4.9,13.4,9.2,6.7,8.2,7.7,17.4,4.7,27.4-3.2,10.5-9.4,19-17,26.5-14.9,14.7-32.5,24.8-52.9,29.6-5.1,1.2-10.5,1.6-15.8,2.3-.2-.3-.3-.7-.5-1Zm22.8-23c1.4-.4,2.6-.7,3.8-1.1,11.9-4.4,22.2-11.3,30.5-20.8,4.9-5.6,8.5-11.8,9.1-19.4.8-11.3-8.4-21-19.8-21.2-5.5,0-10.9,0-16.4,0-2.4,0-4.8,0-7.2,0v62.5Zm0-79.2c10.3,0,20.6,0,30.8,0,1,0,2.2-.8,3.1-1.5,1.8-1.5,1.5-4.2-.7-5.1-1.4-.6-2.9-.9-4.4-.9-5-.1-10.1,0-15.1,0-4.5,0-9,0-13.7,0v7.5Z"/><path class="b" d="m535.9,17.1v5.9h2.8c13.7,0,27.4,0,41.1,0,2.5,0,3.2.7,3.1,3.1-.2,3.7-.2,7.4,0,11.1.1,2.3-.7,2.8-2.9,2.8-13.7,0-27.4,0-41.1,0-.9,0-1.8,0-2.9,0v69c.8,0,1.7,0,2.6,0,13.3,0,26.5,0,39.8,0,5.5,0,10.6-.8,15.5-3.5.6-.3,1.3-.4,2.4-.8v4.1c0,4.9,0,9.7,0,14.6,0,2-.7,2.7-2.6,2.6-1.3,0-2.7,0-4,0-24.5,0-49.1,0-73.6,0-.9,0-1.7-.1-3-.2.7-1.3,1.4-2.2,1.6-3.2.8-3.5,1.9-7,1.9-10.5.1-32.5,0-65,0-97.5,0-4.9-.9-9.5-3.7-14,1-.2,1.7-.4,2.5-.4,23.4,0,46.9,0,70.3,0,1.4,0,2.5,0,2.5,1.9,0,6.1,0,12.3,0,18.4,0,.2-.2.5-.3,1-.7-.3-1.4-.4-2-.8-4.3-2.4-9-3.5-14-3.4-11,0-22,0-33,0s-1.8,0-3,0Z"/><path class="b" d="m74.6,21.5c-1.2-.5-1.9-.7-2.5-1.1-4.3-2.2-8.9-3.4-13.8-3.3-11.1,0-22.2,0-33.3,0h-2.8v5.8h44.6v16.8H22.2c0,1.2,0,2.2,0,3.2,0,21.8,0,43.7,0,65.5,0,5.6.9,10.6,4,15.3.2.3.4.7.6,1.1,0,.1,0,.3,0,.8H0c.1-.6.2-1.2.4-1.6,2-3.3,2.7-6.8,2.7-10.6,0-33.7,0-67.4-.1-101,0-3.9-1.6-7.9-2.5-12.2.2,0,1-.2,1.7-.2,23.3,0,46.5,0,69.8,0,1.9,0,2.7.4,2.7,2.5-.1,6.1,0,12.2,0,19Z"/><path class="b" d="m292.7,108.9c1,0,1.8,0,2.6,0,10.2,0,20.5,0,30.7,0,5.4,0,10.4-1.3,15.3-3.4,2.5-1.1,2.8-.9,2.9,1.9,0,5.4,0,10.7,0,16.1,0,1.6-.4,2.5-2.2,2.5-23.4,0-46.9,0-70.3,0-.4,0-.8-.1-1.6-.3.8-1.7,1.8-3.2,2.1-4.8.6-3.6,1.3-7.3,1.3-10.9,0-31.3,0-62.6,0-93.9,0-5.4-.3-10.7-3.7-15.7h27.8c-.9,1.9-1.7,3.5-2.5,5.1-1.8,3.6-2.5,7.4-2.4,11.4,0,29.1,0,58.3,0,87.4s0,2.8,0,4.7Z"/><path class="b" d="m91.7,125.6c4.5-6,3.7-12.5,3.7-18.8,0-31,0-62,0-93,0-4.7-.9-9.1-3.6-13.5h27.2c-1.5,4.2-2.9,8.1-4.2,12.1-.3.9-.4,2-.4,3,0,30.5,0,61,0,91.4,0,.6,0,1.1,0,1.9.7,0,1.3.1,1.9.1,11.2,0,22.4.3,33.5-.2,4.5-.2,8.9-2,13.3-3.2.8-.2,1.5-.6,2.5-.9.1.7.3,1.2.3,1.7,0,5.8,0,11.6,0,17.4,0,1.8-.6,2.3-2.4,2.3-23.2,0-46.4,0-69.5,0-.6,0-1.1-.1-2.4-.3Z"/><path class="b" d="m613.7,125.6c.7-1.5,1.6-2.6,1.8-3.8.7-3.3,1.5-6.7,1.5-10.1.1-32.2,0-64.5,0-96.7,0-4.7-.4-9.4-3-13.5-.2-.2-.1-.6-.2-1.2h27.2c-.4,1-.7,1.7-1.1,2.4-2.6,4.6-4,9.5-3.9,14.8,0,29.5,0,58.9,0,88.4,0,.9,0,1.8,0,2.9.9,0,1.6.1,2.4.1,10.5,0,21,0,31.5,0,5.3,0,10.3-1.3,15.1-3.4.5-.2,1.1-.5,1.6-.6.1,0,.3,0,.7.2v20.5h-73.6Z"/><path class="b" d="m227.8,125.7h-26.3c.9-2.4,1.9-4.6,2.5-6.9.5-1.8.7-3.6.7-5.4,0-26.1,0-52.2,0-78.3,0-1.2-.5-2.7-1.3-3.5-7.1-7-14.2-14-21.6-20.8-3.5-3.2-7.5-5.9-11.2-8.8-.5-.4-.9-.8-2.1-1.6,1.6-.1,2.4-.2,3.1-.2,9.9,0,19.8,0,29.7,0,2.2,0,3.1.6,2.8,2.9-.3,2.6.6,4.8,2.5,6.6,2.5,2.3,5.1,4.4,8,7,2.8-3.6,6-7.8,9.2-12,.1-.2.3-.4.3-.7q1.1-3.7,5-3.7c9.2,0,18.3,0,27.5,0,.9,0,1.8,0,2.6.1,0,.2.1.4.2.6-1.1.7-2.2,1.5-3.3,2.2-9.2,5.9-17.1,13.1-24.5,21.1-2.1,2.3-4.4,4.4-6.5,6.7-.7.8-1.3,2-1.3,3,0,26,0,52.1,0,78.1,0,4.8,1.1,9.3,3.9,13.9Z"/><path class="b" d="m730.7.4c-.4.9-.6,1.6-.9,2.1-2.9,4.6-3.9,9.7-3.9,15.1,0,29.4,0,58.8,0,88.2v3c1,0,1.8.1,2.6.1,10.3,0,20.7,0,31,0,5.5,0,10.6-1.3,15.5-3.5.5-.2,1.1-.4,1.9-.7.1.9.3,1.6.3,2.3,0,5.5,0,10.9,0,16.4,0,1.7-.5,2.4-2.2,2.4-23.3,0-46.5,0-69.8,0-.5,0-.9-.2-1.8-.3,4.6-6.8,3.6-14.3,3.6-21.6,0-28.4,0-56.8,0-85.1,0-6.2.3-12.5-3.8-18.3h27.4Z"/><path class="b" d="m360,.2h25.7c-.1.6,0,1.2-.3,1.6-2.2,3.6-2.8,7.6-2.8,11.6,0,33.4-.1,66.8,0,100.3,0,4,1.6,7.9,2.5,12.1h-25.1c0-.3-.2-.6,0-.8,3.1-4.6,3.4-9.9,3.4-15.2,0-31.3,0-62.6,0-94,0-5.1-.4-10.1-3.3-14.5-.1-.2,0-.5,0-1.1Z"/><path class="b" d="m576.6,197.5c-3.8,0-6.9,0-10,0-.5,0-1.4-1-1.3-1.3,1.3-4.1-1-7.5-2.2-11.1-1.3-3.9-2.9-7.8-4.6-12.4-1.9,3.8-6,5.7-5.6,10.4.4,4.3.7,8.6.9,12.9,0,.4-.6,1.3-.9,1.3-2.5.1-5,.1-7.5,0-.3,0-.9-1-.9-1.5.1-1.7.7-3.4.7-5.2,0-12.8,0-25.5,0-38.3,0-2.5-.3-4.9-.5-7.7.3,0,.9-.2,1.5-.2,7.1,0,14.3,0,21.4,0,5.2,0,7.7,3.7,5.2,8.2-2.1,3.9-5.1,7.4-7.5,11.2-.5.7-.8,1.8-.5,2.6,2.4,7.3,4.9,14.5,7.5,21.7.8,2.3,2.2,4.5,3.3,6.7.3.6.6,1.2,1.1,2.4Zm-23.8-45.7v16c3.4-4.5,6.3-8.4,9.2-12.4.7-.9.9-2.2,1.4-3.6h-10.6Z"/><path class="b" d="m693.4,144.7c2.7,0,5.9,0,9.1,0,.3,0,.7.9.9,1.4.5,1.4.6,3.1,1.4,4.4,2.9,4.5,6.1,8.8,9.2,13.2.4.5.9,1,1.8,1.9,0-3.9,0-7.3,0-10.7,0-3.3-.4-6.6-.6-10.1h8.6c-.2,2.3-.6,4.5-.6,6.6,0,13.1,0,26.2,0,39.3,0,1.6.5,3.3.6,4.9,0,.5-.4,1.6-.7,1.6-2.7.1-5.5,0-7.7,0,.1-6,.2-11.7.3-17.3,0-.8,0-1.8-.5-2.4-4.5-6.4-9.1-12.7-13.9-19.4-.1,1-.2,1.6-.2,2.2,0,10.3,0,20.6,0,31,0,1,0,2,.2,3,.8,2.9.8,2.9-2.2,2.9-1.7,0-3.4,0-5,0-1.2,0-1.6-.5-1.2-1.8.4-1.7.7-3.4.8-5.2,0-9.9,0-19.8,0-29.7,0-5.2-.2-10.5-.3-16.1Z"/><path class="b" d="m810.7,144.6c11.4-.6,18.9,7.9,20.6,17.7,1.4,8.2,1.4,16.2-2.5,23.8-6.3,12.3-23.1,15.2-32.8,5.6-3.4-3.4-5.4-7.6-6.3-12.3-1.3-7.1-1-14,1.2-20.9,2.8-8.5,9.8-14.4,19.8-13.9Zm-14.3,26.6c-.2,4.4.8,8.6,2.9,12.5,4.6,8.3,16.1,9.2,21.3,1.2,5.6-8.7,5.8-18,1-27.2-2.4-4.5-6.6-6.6-11.7-6.4-4.9.2-8.5,2.6-10.7,7.1-2.1,4.1-3,8.3-2.8,12.9Z"/><path class="b" d="m733,143.7c3.2,1,6.3,1.7,9,2.9,11.1,5.2,19.2,13.4,22.8,25.4,1.6,5.4,1.5,10.8-.5,16-2.3,5.8-6.6,9.1-12.8,9.3-5.5.2-11.1,0-16.6,0-1.7,0-2.1-.5-1.5-2.1.5-1.3.7-2.8.7-4.2,0-13.5,0-27,0-40.6,0-2-.5-3.9-1-6.8Zm8.5,46.3c2.4,0,4.6,0,6.7,0,.8,0,1.7,0,2.5-.1,3.8-.6,6.4-3.4,7-7.2,1.3-8.3-1.9-14.9-7.2-20.8-2.5-2.7-5.2-5.1-9-6.4v34.5Z"/><path class="b" d="m535.3,144.7c-.2,3.4-.5,6.5-.5,9.5,0,11.8,0,23.5,0,35.3,0,2.1.6,4.3.7,6.4,0,.5-.7,1.5-1.1,1.5-2.3.2-4.7.1-7,0-.4,0-1.1-1-1.1-1.5.2-4.3.6-8.6.9-13,0-.5-.9-1.4-1.5-1.4-3.8-.1-7.6-.1-11.3,0-.5,0-1.5,1-1.5,1.6.1,4.2.5,8.3.8,12.5,0,.5,0,1,0,1.6h-9.3c1-8.9,1.2-17.7,3-26.3,2.1-10.1,7.7-18.5,16.9-23.9,2.7-1.5,5.9-2.1,9-2.9.8-.2,1.7.3,2.1.3Zm-8.1,8.4c-7.5,5.7-11,12.9-13.3,21.3,4.2,0,8,0,11.8,0,.5,0,1.4-.9,1.4-1.4,0-6.3,0-12.7,0-19.8Z"/><path class="b" d="m610.6,144.7c-.7,17.7-.9,34.9-.2,52.4h-8.4v-15.5c-4,0-8.3,0-12.5,0-.4,0-1.2,1-1.2,1.5.2,4.2.3,8.4.8,12.5.1,1.4,0,1.9-1.4,1.9-2.3,0-4.5,0-6.8,0-1.7,0-1.6-.7-1.2-2.1.7-2.3,1.4-4.7,1.3-7,0-7.6.1-15.1,3.2-22.2,3.6-8.7,8.9-16,17.6-20.1,2.2-1,4.8-1.3,7.2-1.7.7-.1,1.5.3,1.6.3Zm-8.3,8.7c-7.2,5.5-10.6,12.7-13,20.8h13v-20.8Z"/><path class="b" d="m656.2,144.8c.3,0,.9-.1,1.5-.1,7.7,0,15.4,0,23.2,0,1.8,0,2.6.5,2.5,2.4-.1,2.1,0,4.3,0,6.7-6.2-2.9-12.2-1.3-18.1-1.6-.4,0-.9.7-1.3,1,.5.4,1.1,1,1.6,1,4.3,0,8.6.2,12.8,0,2.2,0,3.2.5,3,2.9-.2,4.5.6,4.5-4.5,4.5-4.3,0-8.5,0-13,0,0,3.1,0,6,0,8.8,0,5.9,0,11.8,0,17.6,0,1.5.5,2.1,2,2,4.8,0,9.6,0,14.4-.1,1.8,0,3.7-.9,5.9-1.5,0,2.6,0,5.1,0,7.5,0,.5-.9,1.3-1.4,1.3-9.5,0-19,0-28.4,0-.2,0-.4-.3-.2-.1.2-3.5.5-6.7.5-9.9,0-9.8,0-19.6,0-29.5,0-4.2-.2-8.5-.4-12.9Z"/><path class="b" d="m479.5,151.7v45.7h-8.5c1-15.8.4-31.5.4-47.1,0-1.7-.5-3.4-.8-5.3.5,0,1.2-.2,1.8-.2,7.5,0,14.9,0,22.4,0,4.8,0,7.3,3,5.7,7.5-1.3,3.5-3.5,6.6-5.5,9.8-4.1,6.3-8.4,12.5-12.6,18.8-.4.6-1,1.2-1.4,1.9-.3,0-.6-.1-.9-.2,0-1.3.2-2.7,0-4-.8-5.3,1.1-9.6,4.3-13.6,2.4-3,4.4-6.3,6.5-9.6.5-.8.6-2,.9-3-.9-.2-1.9-.5-2.8-.6-3.2,0-6.4,0-9.5,0Z"/><path class="b" d="m619.7,144.8c.7,0,1.4-.2,2.2-.2,7.2,0,14.4,0,21.7,0,5.4,0,7.8,3.2,5.7,8.2-1.5,3.6-3.8,6.8-5.9,10.1-4,6.2-8.2,12.2-12.3,18.4-.3.4-.4.9-.7,1.3-.3-.1-.5-.3-.8-.4-.1-.6-.3-1.1-.4-1.7-.6-5.9.4-11.3,4.5-16.1,2.5-2.9,4.4-6.3,6.5-9.5,1.8-2.8,1.3-3.5-1.9-3.5-2.8,0-5.5,0-8.3,0-1.4,0-1.9.4-1.9,1.8,0,12.8,0,25.5,0,38.3,0,1.7.6,3.4,1,5.5h-9.3c1.1-5.8,1-46.8-.2-52.2Z"/><path class="b" d="m773.2,197.4c.3-3.2.7-5.8.7-8.4,0-10.8,0-21.7,0-32.5,0-3.8-.3-7.6-.5-11.6h8.1c-.6,15.8-.1,31.6-.3,47.3,0,.9.1,1.9.5,2.7,1.1,2.3,0,2.6-1.9,2.5-2.3,0-4.6,0-6.7,0Z"/></svg>